<?xml version="1.0" encoding="UTF-8" standalone="no"?>
<svg
   xmlns:dc="http://purl.org/dc/elements/1.1/"
   xmlns:cc="http://creativecommons.org/ns#"
   xmlns:rdf="http://www.w3.org/1999/02/22-rdf-syntax-ns#"
   xmlns:svg="http://www.w3.org/2000/svg"
   xmlns="http://www.w3.org/2000/svg"
   viewBox="0 0 1952 720"
   height="720"
   width="1952"
   xml:space="preserve"
   id="svg2"
   version="1.1"><metadata
     id="metadata8"><rdf:RDF><cc:Work
         rdf:about=""><dc:format>image/svg+xml</dc:format><dc:type
           rdf:resource="http://purl.org/dc/dcmitype/StillImage" /></cc:Work></rdf:RDF></metadata><defs
     id="defs6"><clipPath
       id="clipPath26"
       clipPathUnits="userSpaceOnUse"><path
         id="path24"
         d="M 0,0 H 1464 V 540 H 0 Z" /></clipPath><clipPath
       id="clipPath42"
       clipPathUnits="userSpaceOnUse"><path
         id="path40"
         d="M 0,0 H 1464 V 540 H 0 Z" /></clipPath><clipPath
       id="clipPath62"
       clipPathUnits="userSpaceOnUse"><path
         id="path60"
         d="M 0,0 H 1464 V 540 H 0 Z" /></clipPath><clipPath
       id="clipPath78"
       clipPathUnits="userSpaceOnUse"><path
         id="path76"
         d="M 0,0 H 1464 V 540 H 0 Z" /></clipPath><clipPath
       id="clipPath94"
       clipPathUnits="userSpaceOnUse"><path
         id="path92"
         d="M 0,0 H 1464 V 540 H 0 Z" /></clipPath><clipPath
       id="clipPath110"
       clipPathUnits="userSpaceOnUse"><path
         id="path108"
         d="M 0,0 H 1464 V 540 H 0 Z" /></clipPath><clipPath
       id="clipPath130"
       clipPathUnits="userSpaceOnUse"><path
         id="path128"
         d="M 0,0 H 1464 V 540 H 0 Z" /></clipPath><clipPath
       id="clipPath146"
       clipPathUnits="userSpaceOnUse"><path
         id="path144"
         d="M 0,0 H 1464 V 540 H 0 Z" /></clipPath><clipPath
       id="clipPath164"
       clipPathUnits="userSpaceOnUse"><path
         id="path162"
         d="M 0,0 H 1464 V 540 H 0 Z" /></clipPath><clipPath
       id="clipPath180"
       clipPathUnits="userSpaceOnUse"><path
         id="path178"
         d="M 0,0 H 1464 V 540 H 0 Z" /></clipPath><clipPath
       id="clipPath196"
       clipPathUnits="userSpaceOnUse"><path
         id="path194"
         d="M 0,0 H 1464 V 540 H 0 Z" /></clipPath><clipPath
       id="clipPath212"
       clipPathUnits="userSpaceOnUse"><path
         id="path210"
         d="M 0,0 H 1464 V 540 H 0 Z" /></clipPath><clipPath
       id="clipPath232"
       clipPathUnits="userSpaceOnUse"><path
         id="path230"
         d="M 0,0 H 1464 V 540 H 0 Z" /></clipPath><clipPath
       id="clipPath386"
       clipPathUnits="userSpaceOnUse"><path
         id="path384"
         d="M 0,0 H 1464 V 540 H 0 Z" /></clipPath><clipPath
       id="clipPath402"
       clipPathUnits="userSpaceOnUse"><path
         id="path400"
         d="M 0,0 H 1464 V 540 H 0 Z" /></clipPath><clipPath
       id="clipPath418"
       clipPathUnits="userSpaceOnUse"><path
         id="path416"
         d="M 0,0 H 1464 V 540 H 0 Z" /></clipPath><clipPath
       id="clipPath528"
       clipPathUnits="userSpaceOnUse"><path
         id="path526"
         d="m 1350.644,249.559 h 29.218 v 29.218 h -29.218 z" /></clipPath><clipPath
       id="clipPath542"
       clipPathUnits="userSpaceOnUse"><path
         id="path540"
         d="m 1254.529,12.389 h 29.218 v 29.218 h -29.218 z" /></clipPath><clipPath
       id="clipPath556"
       clipPathUnits="userSpaceOnUse"><path
         id="path554"
         d="m 1207.259,293.169 h 30.757 v 30.757 h -30.757 z" /></clipPath><clipPath
       id="clipPath570"
       clipPathUnits="userSpaceOnUse"><path
         id="path568"
         d="m 1043.559,10.012 h 30.757 v 30.757 h -30.757 z" /></clipPath><clipPath
       id="clipPath590"
       clipPathUnits="userSpaceOnUse"><path
         id="path588"
         d="M 0,0 H 1464 V 540 H 0 Z" /></clipPath></defs><g
     transform="matrix(1.3333333,0,0,-1.3333333,0,720)"
     id="g10"><path
       id="path12"
       style="fill:#ffffff;fill-opacity:1;fill-rule:nonzero;stroke:none"
       d="M 0,0 H 1464 V 540 H 0 Z" /><path
       id="path14"
       style="fill:#aeaeae;fill-opacity:1;fill-rule:evenodd;stroke:#042433;stroke-width:1.5;stroke-linecap:butt;stroke-linejoin:miter;stroke-miterlimit:8;stroke-dasharray:none;stroke-opacity:1"
       d="m 1166.688,137.359 h 180.799 v -29.081 h -180.799 z" /><text
       id="text18"
       style="font-variant:normal;font-weight:bold;font-stretch:normal;font-size:18px;font-family:Aptos;-inkscape-font-specification:Aptos-Bold;writing-mode:lr-tb;fill:#000000;fill-opacity:1;fill-rule:nonzero;stroke:none"
       transform="matrix(1,0,0,-1,1187.7003,117.0585)"><tspan
         id="tspan16"
         y="0"
         x="0 5.2793999 15.7194 26.2854 36.725399 43.084801 46.684799 56.644199 72.604797 83.170799 93.132004 103.698 114.264 119.0646 129.50459">Input embedding</tspan></text>
<g
       id="g20"><g
         clip-path="url(#clipPath26)"
         id="g22"><g
           transform="translate(139.8098,302.5358)"
           id="g28"><path
             id="path30"
             style="fill:#196b24;fill-opacity:1;fill-rule:evenodd;stroke:#052909;stroke-width:1.5;stroke-linecap:butt;stroke-linejoin:miter;stroke-miterlimit:8;stroke-dasharray:none;stroke-opacity:1"
             d="m 0,0 c 3.813,0 6.905,-3.091 6.905,-6.905 v -117.547 c 0,-3.814 -3.092,-6.905 -6.905,-6.905 h -27.619 c -3.813,0 -6.905,3.091 -6.905,6.905 V -6.905 c 0,3.814 3.092,6.905 6.905,6.905 z" /></g></g></g><text
       id="text34"
       style="font-variant:normal;font-weight:normal;font-stretch:normal;font-size:20.04000092px;font-family:Aptos;-inkscape-font-specification:Aptos;writing-mode:lr-tb;fill:#ffffff;fill-opacity:1;fill-rule:nonzero;stroke:none"
       transform="matrix(0,-1,-1,0,119.5205,290.7747)"><tspan
         id="tspan32"
         y="0"
         x="0 11.16228 28.202291 39.480804 50.041885 61.320396 72.600914 77.40049 88.440529 98.159927">Embeddings</tspan></text>
<g
       id="g36"><g
         clip-path="url(#clipPath42)"
         id="g38"><g
           transform="translate(228.6665,296.8572)"
           id="g44"><path
             id="path46"
             style="fill:#a02b93;fill-opacity:1;fill-rule:evenodd;stroke:none"
             d="m 0,0 c 3.813,0 6.905,-3.091 6.905,-6.905 v -106.19 C 6.905,-116.909 3.813,-120 0,-120 h -27.619 c -3.813,0 -6.905,3.091 -6.905,6.905 v 106.19 c 0,3.814 3.092,6.905 6.905,6.905 z" /></g><g
           transform="translate(228.6665,296.8572)"
           id="g48"><path
             id="path50"
             style="fill:none;stroke:#410c3b;stroke-width:1.5;stroke-linecap:butt;stroke-linejoin:miter;stroke-miterlimit:8;stroke-dasharray:none;stroke-opacity:1"
             d="m 0,0 c 3.813,0 6.905,-3.091 6.905,-6.905 v -106.19 C 6.905,-116.909 3.813,-120 0,-120 h -27.619 c -3.813,0 -6.905,3.091 -6.905,6.905 v 106.19 c 0,3.814 3.092,6.905 6.905,6.905 z" /></g></g></g><text
       id="text54"
       style="font-variant:normal;font-weight:normal;font-stretch:normal;font-size:20.04000092px;font-family:Aptos;-inkscape-font-specification:Aptos;writing-mode:lr-tb;fill:#ffffff;fill-opacity:1;fill-rule:nonzero;stroke:none"
       transform="matrix(0,-1,-1,0,208.3772,283.0472)"><tspan
         id="tspan52"
         y="0"
         x="0 12.1242 27.963816 39.364571 43.332493 57.492756 68.534798 75.254211">RMS Norm</tspan></text>
<g
       id="g56"><g
         clip-path="url(#clipPath62)"
         id="g58"><g
           transform="translate(317.238,319.5715)"
           id="g64"><path
             id="path66"
             style="fill:#c04f15;fill-opacity:1;fill-rule:evenodd;stroke:#622c0f;stroke-width:1.5;stroke-linecap:butt;stroke-linejoin:miter;stroke-miterlimit:8;stroke-dasharray:none;stroke-opacity:1"
             d="m 0,0 c 3.813,0 6.905,-3.091 6.905,-6.905 v -31.619 c 0,-3.813 -3.092,-6.905 -6.905,-6.905 h -27.619 c -3.813,0 -6.905,3.092 -6.905,6.905 v 31.619 c 0,3.814 3.092,6.905 6.905,6.905 z" /></g></g></g><text
       id="text70"
       style="font-variant:normal;font-weight:normal;font-stretch:normal;font-size:20.04000092px;font-family:Aptos;-inkscape-font-specification:Aptos;writing-mode:lr-tb;fill:#ffffff;fill-opacity:1;fill-rule:nonzero;stroke:none"
       transform="matrix(0,-1,-1,0,296.9486,302.6147)"><tspan
         id="tspan68"
         y="0"
         x="0">K</tspan></text>
<g
       id="g72"><g
         clip-path="url(#clipPath78)"
         id="g74"><g
           transform="translate(317.2379,259.5715)"
           id="g80"><path
             id="path82"
             style="fill:#c04f15;fill-opacity:1;fill-rule:evenodd;stroke:#622c0f;stroke-width:1.5;stroke-linecap:butt;stroke-linejoin:miter;stroke-miterlimit:8;stroke-dasharray:none;stroke-opacity:1"
             d="m 0,0 c 3.813,0 6.905,-3.091 6.905,-6.905 v -31.619 c 0,-3.813 -3.092,-6.905 -6.905,-6.905 h -27.619 c -3.813,0 -6.905,3.092 -6.905,6.905 v 31.619 c 0,3.814 3.092,6.905 6.905,6.905 z" /></g></g></g><text
       id="text86"
       style="font-variant:normal;font-weight:normal;font-stretch:normal;font-size:20.04000092px;font-family:Aptos;-inkscape-font-specification:Aptos;writing-mode:lr-tb;fill:#ffffff;fill-opacity:1;fill-rule:nonzero;stroke:none"
       transform="matrix(0,-1,-1,0,296.9485,244.1747)"><tspan
         id="tspan84"
         y="0"
         x="0">Q</tspan></text>
<g
       id="g88"><g
         clip-path="url(#clipPath94)"
         id="g90"><g
           transform="translate(317.2379,199.5715)"
           id="g96"><path
             id="path98"
             style="fill:#c04f15;fill-opacity:1;fill-rule:evenodd;stroke:#622c0f;stroke-width:1.5;stroke-linecap:butt;stroke-linejoin:miter;stroke-miterlimit:8;stroke-dasharray:none;stroke-opacity:1"
             d="m 0,0 c 3.813,0 6.905,-3.091 6.905,-6.905 v -31.619 c 0,-3.813 -3.092,-6.905 -6.905,-6.905 h -27.619 c -3.813,0 -6.905,3.092 -6.905,6.905 v 31.619 c 0,3.814 3.092,6.905 6.905,6.905 z" /></g></g></g><text
       id="text102"
       style="font-variant:normal;font-weight:normal;font-stretch:normal;font-size:20.04000092px;font-family:Aptos;-inkscape-font-specification:Aptos;writing-mode:lr-tb;fill:#ffffff;fill-opacity:1;fill-rule:nonzero;stroke:none"
       transform="matrix(0,-1,-1,0,296.9485,182.7322)"><tspan
         id="tspan100"
         y="0"
         x="0">V</tspan></text>
<g
       id="g104"><g
         clip-path="url(#clipPath110)"
         id="g106"><g
           transform="translate(360.0951,319.5715)"
           id="g112"><path
             id="path114"
             style="fill:#000000;fill-opacity:1;fill-rule:evenodd;stroke:none"
             d="m 0,0 c 3.813,0 6.905,-3.091 6.905,-6.905 v -151.619 c 0,-3.813 -3.092,-6.905 -6.905,-6.905 h -27.619 c -3.813,0 -6.905,3.092 -6.905,6.905 V -6.905 c 0,3.814 3.092,6.905 6.905,6.905 z" /></g><g
           transform="translate(360.0951,319.5715)"
           id="g116"><path
             id="path118"
             style="fill:none;stroke:#000000;stroke-width:1.5;stroke-linecap:butt;stroke-linejoin:miter;stroke-miterlimit:8;stroke-dasharray:none;stroke-opacity:1"
             d="m 0,0 c 3.813,0 6.905,-3.091 6.905,-6.905 v -151.619 c 0,-3.813 -3.092,-6.905 -6.905,-6.905 h -27.619 c -3.813,0 -6.905,3.092 -6.905,6.905 V -6.905 c 0,3.814 3.092,6.905 6.905,6.905 z" /></g></g></g><text
       id="text122"
       style="font-variant:normal;font-weight:normal;font-stretch:normal;font-size:20.04000092px;font-family:Aptos;-inkscape-font-specification:Aptos;writing-mode:lr-tb;fill:#ffffff;fill-opacity:1;fill-rule:nonzero;stroke:none"
       transform="matrix(0,-1,-1,0,339.8057,296.6122)"><tspan
         id="tspan120"
         y="0"
         x="0 11.400756 21.959831 27.110111 33.005878 39.83952 51.598991 58.071911 64.430603 74.991684 86.033722 92.506645 97.296204 108.33624">Self-Attention</tspan></text>
<g
       id="g124"><g
         clip-path="url(#clipPath130)"
         id="g126"><g
           transform="translate(481.9521,296.8572)"
           id="g132"><path
             id="path134"
             style="fill:#a02b93;fill-opacity:1;fill-rule:evenodd;stroke:#410c3b;stroke-width:1.5;stroke-linecap:butt;stroke-linejoin:miter;stroke-miterlimit:8;stroke-dasharray:none;stroke-opacity:1"
             d="m 0,0 c 3.813,0 6.905,-3.091 6.905,-6.905 v -106.19 C 6.905,-116.909 3.813,-120 0,-120 h -27.619 c -3.813,0 -6.905,3.091 -6.905,6.905 v 106.19 c 0,3.814 3.092,6.905 6.905,6.905 z" /></g></g></g><text
       id="text138"
       style="font-variant:normal;font-weight:normal;font-stretch:normal;font-size:20.04000092px;font-family:Aptos;-inkscape-font-specification:Aptos;writing-mode:lr-tb;fill:#ffffff;fill-opacity:1;fill-rule:nonzero;stroke:none"
       transform="matrix(0,-1,-1,0,461.6627,283.0472)"><tspan
         id="tspan136"
         y="0"
         x="0 12.1242 27.963816 39.364571 43.332493 57.492756 68.534798 75.254211">RMS Norm</tspan></text>
<g
       id="g140"><g
         clip-path="url(#clipPath146)"
         id="g142"><g
           transform="translate(572.0471,308.2144)"
           id="g148"><path
             id="path150"
             style="fill:#104862;fill-opacity:1;fill-rule:evenodd;stroke:#024059;stroke-width:1.5;stroke-linecap:butt;stroke-linejoin:miter;stroke-miterlimit:8;stroke-dasharray:none;stroke-opacity:1"
             d="m 0,0 c 4.865,0 8.81,-3.944 8.81,-8.81 v -125.095 c 0,-4.865 -3.945,-8.809 -8.81,-8.809 h -35.238 c -4.865,0 -8.809,3.944 -8.809,8.809 V -8.81 c 0,4.866 3.944,8.81 8.809,8.81 z" /></g></g></g><text
       id="text156"
       style="font-variant:normal;font-weight:normal;font-stretch:normal;font-size:20.04000092px;font-family:Aptos;-inkscape-font-specification:Aptos;writing-mode:lr-tb;fill:#ffffff;fill-opacity:1;fill-rule:nonzero;stroke:none"
       transform="matrix(0,-1,-1,0,559.9484,295.7797)"><tspan
         id="tspan152"
         y="0"
         x="0 10.3206 20.879677 31.440756 42.723274 46.570957 56.889553 67.929588 75.00972 89.290222 99.971542 106.45248 117.735">Feed Forward </tspan><tspan
         id="tspan154"
         y="24.007919"
         x="24.969839 36.370598 50.769337 55.570919 69.719162 79.079842">SwiGLU</tspan></text>
<g
       id="g158"><g
         clip-path="url(#clipPath164)"
         id="g160"><g
           transform="translate(694.5233,296.8572)"
           id="g166"><path
             id="path168"
             style="fill:#a02b93;fill-opacity:1;fill-rule:evenodd;stroke:#410c3b;stroke-width:1.5;stroke-linecap:butt;stroke-linejoin:miter;stroke-miterlimit:8;stroke-dasharray:none;stroke-opacity:1"
             d="m 0,0 c 3.813,0 6.905,-3.091 6.905,-6.905 v -106.19 C 6.905,-116.909 3.813,-120 0,-120 h -27.619 c -3.813,0 -6.905,3.091 -6.905,6.905 v 106.19 c 0,3.814 3.092,6.905 6.905,6.905 z" /></g></g></g><text
       id="text172"
       style="font-variant:normal;font-weight:normal;font-stretch:normal;font-size:20.04000092px;font-family:Aptos;-inkscape-font-specification:Aptos;writing-mode:lr-tb;fill:#ffffff;fill-opacity:1;fill-rule:nonzero;stroke:none"
       transform="matrix(0,-1,-1,0,674.2338,283.0472)"><tspan
         id="tspan170"
         y="0"
         x="0 12.1242 27.963816 39.364571 43.332493 57.492756 68.534798 75.254211">RMS Norm</tspan></text>
<g
       id="g174"><g
         clip-path="url(#clipPath180)"
         id="g176"><g
           transform="translate(783.0945,296.8572)"
           id="g182"><path
             id="path184"
             style="fill:#104862;fill-opacity:1;fill-rule:evenodd;stroke:#024059;stroke-width:1.5;stroke-linecap:butt;stroke-linejoin:miter;stroke-miterlimit:8;stroke-dasharray:none;stroke-opacity:1"
             d="m 0,0 c 3.813,0 6.905,-3.091 6.905,-6.905 v -106.19 C 6.905,-116.909 3.813,-120 0,-120 h -27.619 c -3.813,0 -6.905,3.091 -6.905,6.905 v 106.19 c 0,3.814 3.092,6.905 6.905,6.905 z" /></g></g></g><text
       id="text188"
       style="font-variant:normal;font-weight:normal;font-stretch:normal;font-size:20.04000092px;font-family:Aptos;-inkscape-font-specification:Aptos;writing-mode:lr-tb;fill:#ffffff;fill-opacity:1;fill-rule:nonzero;stroke:none"
       transform="matrix(0,-1,-1,0,762.8051,263.7247)"><tspan
         id="tspan186"
         y="0"
         x="0 9.9598799 14.74944 25.791479 36.352558 47.031876">Linear</tspan></text>
<g
       id="g190"><g
         clip-path="url(#clipPath196)"
         id="g192"><g
           transform="translate(871.6658,296.8572)"
           id="g198"><path
             id="path200"
             style="fill:#000000;fill-opacity:1;fill-rule:evenodd;stroke:#000000;stroke-width:1.5;stroke-linecap:butt;stroke-linejoin:miter;stroke-miterlimit:8;stroke-dasharray:none;stroke-opacity:1"
             d="m 0,0 c 3.813,0 6.905,-3.091 6.905,-6.905 v -106.19 C 6.905,-116.909 3.813,-120 0,-120 h -27.619 c -3.813,0 -6.905,3.091 -6.905,6.905 v 106.19 c 0,3.814 3.092,6.905 6.905,6.905 z" /></g></g></g><text
       id="text204"
       style="font-variant:normal;font-weight:normal;font-stretch:normal;font-size:20.04000092px;font-family:Aptos;-inkscape-font-specification:Aptos;writing-mode:lr-tb;fill:#ffffff;fill-opacity:1;fill-rule:nonzero;stroke:none"
       transform="matrix(0,-1,-1,0,851.3763,272.1272)"><tspan
         id="tspan202"
         y="0"
         x="0 11.400756 22.440792 28.559004 35.031925 50.863525 61.544846">SoftMax</tspan></text>
<g
       id="g206"><g
         clip-path="url(#clipPath212)"
         id="g208"><g
           transform="translate(390.8571,236.8572)"
           id="g214"><path
             id="path216"
             style="fill:#e97132;fill-opacity:1;fill-rule:evenodd;stroke:none"
             d="m 0,0 c 0,8.718 7.068,15.786 15.786,15.786 8.718,0 15.786,-7.068 15.786,-15.786 0,-8.718 -7.068,-15.786 -15.786,-15.786 C 7.068,-15.786 0,-8.718 0,0" /></g><g
           transform="translate(390.8571,236.8572)"
           id="g218"><path
             id="path220"
             style="fill:none;stroke:#622c0f;stroke-width:1.5;stroke-linecap:butt;stroke-linejoin:miter;stroke-miterlimit:8;stroke-dasharray:none;stroke-opacity:1"
             d="m 0,0 c 0,8.718 7.068,15.786 15.786,15.786 8.718,0 15.786,-7.068 15.786,-15.786 0,-8.718 -7.068,-15.786 -15.786,-15.786 C 7.068,-15.786 0,-8.718 0,0 Z" /></g></g></g><text
       id="text224"
       style="font-variant:normal;font-weight:bold;font-stretch:normal;font-size:32.04000092px;font-family:Aptos;-inkscape-font-specification:Aptos-Bold;writing-mode:lr-tb;fill:#ffffff;fill-opacity:1;fill-rule:nonzero;stroke:none"
       transform="matrix(1,0,0,-1,398.0803,226.5372)"><tspan
         id="tspan222"
         y="0"
         x="0">+</tspan></text>
<g
       id="g226"><g
         clip-path="url(#clipPath232)"
         id="g228"><g
           transform="translate(603.7134,236.8572)"
           id="g234"><path
             id="path236"
             style="fill:#e97132;fill-opacity:1;fill-rule:evenodd;stroke:none"
             d="m 0,0 c 0,8.718 7.068,15.786 15.786,15.786 8.718,0 15.785,-7.068 15.785,-15.786 0,-8.718 -7.067,-15.786 -15.785,-15.786 C 7.068,-15.786 0,-8.718 0,0" /></g><g
           transform="translate(603.7134,236.8572)"
           id="g238"><path
             id="path240"
             style="fill:none;stroke:#622c0f;stroke-width:1.5;stroke-linecap:butt;stroke-linejoin:miter;stroke-miterlimit:8;stroke-dasharray:none;stroke-opacity:1"
             d="m 0,0 c 0,8.718 7.068,15.786 15.786,15.786 8.718,0 15.785,-7.068 15.785,-15.786 0,-8.718 -7.067,-15.786 -15.785,-15.786 C 7.068,-15.786 0,-8.718 0,0 Z" /></g></g></g><text
       id="text244"
       style="font-variant:normal;font-weight:bold;font-stretch:normal;font-size:32.04000092px;font-family:Aptos;-inkscape-font-specification:Aptos-Bold;writing-mode:lr-tb;fill:#ffffff;fill-opacity:1;fill-rule:nonzero;stroke:none"
       transform="matrix(1,0,0,-1,610.9367,226.5372)"><tspan
         id="tspan242"
         y="0"
         x="0">+</tspan></text>
<path
       id="path246"
       style="fill:none;stroke:#042433;stroke-width:4.5;stroke-linecap:butt;stroke-linejoin:miter;stroke-miterlimit:8;stroke-dasharray:4.5, 4.5;stroke-dashoffset:0;stroke-opacity:1"
       d="M 160.286,395 H 648 V 78.714 H 160.286 Z" /><text
       id="text250"
       style="font-variant:normal;font-weight:bold;font-stretch:normal;font-size:24px;font-family:Aptos;-inkscape-font-specification:Aptos-Bold;writing-mode:lr-tb;fill:#000000;fill-opacity:1;fill-rule:nonzero;stroke:none"
       transform="matrix(1,0,0,-1,274.198,37.5774)"><tspan
         id="tspan248"
         y="0"
         x="0 11.88 29.280001 34.080002 41.16 52.200001 60.360001 73.559998 87.480003 99.839996 107.6376 121.4376 130.3176 151.6776 164.9976 173.87759 178.79761 193.6776 200.7576 214.5576 227.7576 240.3576 252.71761">xN (Transformer Blocks)</tspan></text>
<text
       id="text254"
       style="font-variant:normal;font-weight:bold;font-stretch:normal;font-size:20.04000092px;font-family:Aptos;-inkscape-font-specification:Aptos-Bold;writing-mode:lr-tb;fill:#000000;fill-opacity:1;fill-rule:nonzero;stroke:none"
       transform="matrix(0,-1,-1,0,47.4145,260.9951)"><tspan
         id="tspan252"
         y="0"
         x="0 5.8797359 17.520971 29.280443 40.919678">Input</tspan></text>
<g
       transform="translate(69.4945,237.0001)"
       id="g256"><path
         id="path258"
         style="fill:none;stroke:#000000;stroke-width:3;stroke-linecap:butt;stroke-linejoin:miter;stroke-miterlimit:8;stroke-dasharray:none;stroke-opacity:1"
         d="M 0,0 28.292,-0.113" /></g><g
       transform="translate(96.3045,241.3935)"
       id="g260"><path
         id="path262"
         style="fill:#000000;fill-opacity:1;fill-rule:evenodd;stroke:none"
         d="M 0,0 8.982,-4.536 -0.036,-9 Z" /></g><g
       transform="translate(146.7147,236.8572)"
       id="g264"><path
         id="path266"
         style="fill:none;stroke:#000000;stroke-width:3;stroke-linecap:butt;stroke-linejoin:miter;stroke-miterlimit:8;stroke-dasharray:none;stroke-opacity:1"
         d="M 0,0 H 39.928" /></g><g
       transform="translate(185.1431,241.3575)"
       id="g268"><path
         id="path270"
         style="fill:#000000;fill-opacity:1;fill-rule:evenodd;stroke:none"
         d="M 0,0 9,-4.5 0,-9 Z" /></g><g
       transform="translate(366.9999,236.8572)"
       id="g272"><path
         id="path274"
         style="fill:none;stroke:#000000;stroke-width:3;stroke-linecap:butt;stroke-linejoin:miter;stroke-miterlimit:8;stroke-dasharray:none;stroke-opacity:1"
         d="M 0,0 H 16.357" /></g><g
       transform="translate(381.8573,241.3576)"
       id="g276"><path
         id="path278"
         style="fill:#000000;fill-opacity:1;fill-rule:evenodd;stroke:none"
         d="M 0,0 9,-4.5 0,-9 Z" /></g><g
       transform="translate(422.4286,236.8572)"
       id="g280"><path
         id="path282"
         style="fill:none;stroke:#000000;stroke-width:3;stroke-linecap:butt;stroke-linejoin:miter;stroke-miterlimit:8;stroke-dasharray:none;stroke-opacity:1"
         d="M 0,0 H 17.5" /></g><g
       transform="translate(438.4286,241.3576)"
       id="g284"><path
         id="path286"
         style="fill:#000000;fill-opacity:1;fill-rule:evenodd;stroke:none"
         d="M 0,0 9,-4.5 0,-9 Z" /></g><g
       transform="translate(488.8569,236.8572)"
       id="g288"><path
         id="path290"
         style="fill:none;stroke:#000000;stroke-width:3;stroke-linecap:butt;stroke-linejoin:miter;stroke-miterlimit:8;stroke-dasharray:none;stroke-opacity:1"
         d="M 0,0 H 31.643" /></g><g
       transform="translate(519.0002,241.3575)"
       id="g292"><path
         id="path294"
         style="fill:#000000;fill-opacity:1;fill-rule:evenodd;stroke:none"
         d="M 0,0 9,-4.5 0,-9 Z" /></g><g
       transform="translate(580.8568,236.8572)"
       id="g296"><path
         id="path298"
         style="fill:none;stroke:#000000;stroke-width:3;stroke-linecap:butt;stroke-linejoin:miter;stroke-miterlimit:8;stroke-dasharray:none;stroke-opacity:1"
         d="M 0,0 H 15.357" /></g><g
       transform="translate(594.7137,241.3576)"
       id="g300"><path
         id="path302"
         style="fill:#000000;fill-opacity:1;fill-rule:evenodd;stroke:none"
         d="M 0,0 9,-4.5 0,-9 Z" /></g><g
       transform="translate(635.285,236.8572)"
       id="g304"><path
         id="path306"
         style="fill:none;stroke:#000000;stroke-width:3;stroke-linecap:butt;stroke-linejoin:miter;stroke-miterlimit:8;stroke-dasharray:none;stroke-opacity:1"
         d="M 0,0 H 17.215" /></g><g
       transform="translate(650.9998,241.3576)"
       id="g308"><path
         id="path310"
         style="fill:#000000;fill-opacity:1;fill-rule:evenodd;stroke:none"
         d="M 0,0 9,-4.5 0,-9 Z" /></g><g
       transform="translate(701.4281,236.8572)"
       id="g312"><path
         id="path314"
         style="fill:none;stroke:#000000;stroke-width:3;stroke-linecap:butt;stroke-linejoin:miter;stroke-miterlimit:8;stroke-dasharray:none;stroke-opacity:1"
         d="M 0,0 H 39.643" /></g><g
       transform="translate(739.571,241.3575)"
       id="g316"><path
         id="path318"
         style="fill:#000000;fill-opacity:1;fill-rule:evenodd;stroke:none"
         d="M 0,0 9,-4.5 0,-9 Z" /></g><g
       transform="translate(789.9993,236.8572)"
       id="g320"><path
         id="path322"
         style="fill:none;stroke:#000000;stroke-width:3;stroke-linecap:butt;stroke-linejoin:miter;stroke-miterlimit:8;stroke-dasharray:none;stroke-opacity:1"
         d="M 0,0 H 39.643" /></g><g
       transform="translate(828.1423,241.3575)"
       id="g324"><path
         id="path326"
         style="fill:#000000;fill-opacity:1;fill-rule:evenodd;stroke:none"
         d="M 0,0 9,-4.5 0,-9 Z" /></g><g
       transform="translate(235.5714,236.8572)"
       id="g328"><path
         id="path330"
         style="fill:none;stroke:#000000;stroke-width:3;stroke-linecap:butt;stroke-linejoin:miter;stroke-miterlimit:8;stroke-dasharray:none;stroke-opacity:1"
         d="M 0,0 H 23.572 V 60 H 39.643" /></g><g
       transform="translate(273.7146,292.3567)"
       id="g332"><path
         id="path334"
         style="fill:#000000;fill-opacity:1;fill-rule:evenodd;stroke:none"
         d="M 0,0 9,4.5 0,9 Z" /></g><g
       transform="translate(235.5714,236.8572)"
       id="g336"><path
         id="path338"
         style="fill:none;stroke:#000000;stroke-width:3;stroke-linecap:butt;stroke-linejoin:miter;stroke-miterlimit:8;stroke-dasharray:none;stroke-opacity:1"
         d="M 0,0 H 23.572 V 0 H 39.643" /></g><g
       transform="translate(273.7145,241.3575)"
       id="g340"><path
         id="path342"
         style="fill:#000000;fill-opacity:1;fill-rule:evenodd;stroke:none"
         d="M 0,0 9,-4.5 0,-9 Z" /></g><g
       transform="translate(235.5714,236.8572)"
       id="g344"><path
         id="path346"
         style="fill:none;stroke:#000000;stroke-width:3;stroke-linecap:butt;stroke-linejoin:miter;stroke-miterlimit:8;stroke-dasharray:none;stroke-opacity:1"
         d="M 0,0 H 23.572 V -60 H 39.643" /></g><g
       transform="translate(273.7147,181.3575)"
       id="g348"><path
         id="path350"
         style="fill:#000000;fill-opacity:1;fill-rule:evenodd;stroke:none"
         d="M 0,0 9,-4.5 0,-9 Z" /></g><g
       transform="translate(126.0004,302.5358)"
       id="g352"><path
         id="path354"
         style="fill:none;stroke:#000000;stroke-width:3;stroke-linecap:butt;stroke-linejoin:miter;stroke-miterlimit:8;stroke-dasharray:none;stroke-opacity:1"
         d="M 0,0 V 123.893 H 280.642 V -42.393" /></g><g
       transform="translate(402.1424,261.6428)"
       id="g356"><path
         id="path358"
         style="fill:#000000;fill-opacity:1;fill-rule:evenodd;stroke:none"
         d="M 0,0 4.5,-9 9,0 Z" /></g><g
       transform="translate(422.4286,236.8572)"
       id="g360"><path
         id="path362"
         style="fill:none;stroke:#000000;stroke-width:3;stroke-linecap:butt;stroke-linejoin:miter;stroke-miterlimit:8;stroke-dasharray:none;stroke-opacity:1"
         d="m 0,0 h 8.358 v -108.072 h 188.713 v 84.786" /></g><g
       transform="translate(615.0001,212.071)"
       id="g364"><path
         id="path366"
         style="fill:#000000;fill-opacity:1;fill-rule:evenodd;stroke:none"
         d="M 0,0 4.499,9 9,0.001 Z" /></g><text
       id="text370"
       style="font-variant:normal;font-weight:bold;font-stretch:normal;font-size:24px;font-family:Aptos;-inkscape-font-specification:Aptos-Bold;writing-mode:lr-tb;fill:#000000;fill-opacity:1;fill-rule:nonzero;stroke:none"
       transform="matrix(1,0,0,-1,351.2202,493.4088)"><tspan
         id="tspan368"
         y="0"
         x="0 12.24 24.84 38.040001 57.720001 72.599998 77.639999 92.519997 101.16 114.36 128.28 134.75999 143.16 156.48 169.67999 178.2 192.12 200.75999">LLaMA Architecture</tspan></text>
<g
       transform="translate(943.9999,507.3442)"
       id="g372"><path
         id="path374"
         style="fill:none;stroke:#000000;stroke-width:3;stroke-linecap:butt;stroke-linejoin:miter;stroke-miterlimit:8;stroke-dasharray:none;stroke-opacity:1"
         d="M 0,0 V -474.689" /></g><text
       id="text378"
       style="font-variant:normal;font-weight:bold;font-stretch:normal;font-size:24px;font-family:Aptos;-inkscape-font-specification:Aptos-Bold;writing-mode:lr-tb;fill:#000000;fill-opacity:1;fill-rule:nonzero;stroke:none"
       transform="matrix(1,0,0,-1,1063.2069,493.4088)"><tspan
         id="tspan376"
         y="0"
         x="0 12.36 26.16 41.400002 56.279999 61.080002 74.879997 88.800003 93.599998 108.36 116.88 125.28 138.5976 152.51759 161.0376 167.51759 181.3176 195.23759 199.9176 221.6376 234.9576 241.43761 253.6776 267.5976 276.11761">LoRA on Attention Weights</tspan></text>
<g
       id="g380"><g
         clip-path="url(#clipPath386)"
         id="g382"><g
           transform="translate(975.7465,335.9522)"
           id="g388"><path
             id="path390"
             style="fill:#c04f15;fill-opacity:1;fill-rule:evenodd;stroke:#622c0f;stroke-width:1.5;stroke-linecap:butt;stroke-linejoin:miter;stroke-miterlimit:8;stroke-dasharray:none;stroke-opacity:1"
             d="m 0,0 c 0,3.813 3.091,6.905 6.905,6.905 h 31.619 c 3.813,0 6.905,-3.092 6.905,-6.905 v -27.619 c 0,-3.813 -3.092,-6.905 -6.905,-6.905 H 6.905 C 3.091,-34.524 0,-31.432 0,-27.619 Z" /></g></g></g><text
       id="text394"
       style="font-variant:normal;font-weight:normal;font-stretch:normal;font-size:20.04000092px;font-family:Aptos;-inkscape-font-specification:Aptos;writing-mode:lr-tb;fill:#ffffff;fill-opacity:1;fill-rule:nonzero;stroke:none"
       transform="matrix(1,0,0,-1,992.7032,315.6628)"><tspan
         id="tspan392"
         y="0"
         x="0">K</tspan></text>
<g
       id="g396"><g
         clip-path="url(#clipPath402)"
         id="g398"><g
           transform="translate(975.7465,275.9522)"
           id="g404"><path
             id="path406"
             style="fill:#c04f15;fill-opacity:1;fill-rule:evenodd;stroke:#622c0f;stroke-width:1.5;stroke-linecap:butt;stroke-linejoin:miter;stroke-miterlimit:8;stroke-dasharray:none;stroke-opacity:1"
             d="m 0,0 c 0,3.813 3.091,6.905 6.905,6.905 h 31.619 c 3.813,0 6.905,-3.092 6.905,-6.905 v -27.619 c 0,-3.813 -3.092,-6.905 -6.905,-6.905 H 6.905 C 3.091,-34.524 0,-31.432 0,-27.619 Z" /></g></g></g><text
       id="text410"
       style="font-variant:normal;font-weight:normal;font-stretch:normal;font-size:20.04000092px;font-family:Aptos;-inkscape-font-specification:Aptos;writing-mode:lr-tb;fill:#ffffff;fill-opacity:1;fill-rule:nonzero;stroke:none"
       transform="matrix(1,0,0,-1,991.1432,255.6628)"><tspan
         id="tspan408"
         y="0"
         x="0">Q</tspan></text>
<g
       id="g412"><g
         clip-path="url(#clipPath418)"
         id="g414"><g
           transform="translate(975.7465,215.9522)"
           id="g420"><path
             id="path422"
             style="fill:#c04f15;fill-opacity:1;fill-rule:evenodd;stroke:#622c0f;stroke-width:1.5;stroke-linecap:butt;stroke-linejoin:miter;stroke-miterlimit:8;stroke-dasharray:none;stroke-opacity:1"
             d="m 0,0 c 0,3.813 3.091,6.905 6.905,6.905 h 31.619 c 3.813,0 6.905,-3.092 6.905,-6.905 v -27.619 c 0,-3.813 -3.092,-6.905 -6.905,-6.905 H 6.905 C 3.091,-34.524 0,-31.432 0,-27.619 Z" /></g></g></g><text
       id="text426"
       style="font-variant:normal;font-weight:normal;font-stretch:normal;font-size:20.04000092px;font-family:Aptos;-inkscape-font-specification:Aptos;writing-mode:lr-tb;fill:#ffffff;fill-opacity:1;fill-rule:nonzero;stroke:none"
       transform="matrix(1,0,0,-1,992.5857,195.6628)"><tspan
         id="tspan424"
         y="0"
         x="0">V</tspan></text>
<path
       id="path428"
       style="fill:none;stroke:#c04f15;stroke-width:4.5;stroke-linecap:butt;stroke-linejoin:miter;stroke-miterlimit:8;stroke-dasharray:4.5, 4.5;stroke-dashoffset:0;stroke-opacity:1"
       d="m 1083.319,470.643 h 345.253 V 54.37 h -345.253 z" /><g
       transform="translate(1021.1751,322.1429)"
       id="g430"><path
         id="path432"
         style="fill:none;stroke:#000000;stroke-width:3;stroke-linecap:butt;stroke-linejoin:miter;stroke-miterlimit:8;stroke-dasharray:none;stroke-opacity:1"
         d="M 0,0 H 31.072 V -59.636 H 54.644" /></g><g
       transform="translate(1074.319,267.0069)"
       id="g434"><path
         id="path436"
         style="fill:#000000;fill-opacity:1;fill-rule:evenodd;stroke:none"
         d="M 0,0 9,-4.5 0,-9 Z" /></g><g
       transform="translate(1021.175,262.1429)"
       id="g438"><path
         id="path440"
         style="fill:none;stroke:#000000;stroke-width:3;stroke-linecap:butt;stroke-linejoin:miter;stroke-miterlimit:8;stroke-dasharray:none;stroke-opacity:1"
         d="M 0,0 H 31.072 V 0.364 H 54.644" /></g><g
       transform="translate(1074.319,258.006)"
       id="g442"><path
         id="path444"
         style="fill:#000000;fill-opacity:1;fill-rule:evenodd;stroke:none"
         d="M 0,0 9,4.5 0,9 Z" /></g><g
       transform="translate(1021.175,202.1429)"
       id="g446"><path
         id="path448"
         style="fill:none;stroke:#000000;stroke-width:3;stroke-linecap:butt;stroke-linejoin:miter;stroke-miterlimit:8;stroke-dasharray:none;stroke-opacity:1"
         d="M 0,0 H 31.072 V 60.364 H 54.644" /></g><g
       transform="translate(1074.319,258.006)"
       id="g450"><path
         id="path452"
         style="fill:#000000;fill-opacity:1;fill-rule:evenodd;stroke:none"
         d="M 0,0 9,4.5 0,9 Z" /></g><g
       transform="translate(1337.5055,306.593)"
       id="g454"><path
         id="path456"
         style="fill:none;stroke:#000000;stroke-width:3;stroke-linecap:butt;stroke-linejoin:miter;stroke-miterlimit:8;stroke-dasharray:none;stroke-opacity:1"
         d="M 0,0 V 38.483 H -54.942" /></g><g
       transform="translate(1284.0638,349.5763)"
       id="g458"><path
         id="path460"
         style="fill:#000000;fill-opacity:1;fill-rule:evenodd;stroke:none"
         d="M 0,0 -9,-4.5 0,-9 Z" /></g><path
       id="path462"
       style="fill:#196b24;fill-opacity:1;fill-rule:evenodd;stroke:#052909;stroke-width:1.5;stroke-linecap:butt;stroke-linejoin:miter;stroke-miterlimit:8;stroke-dasharray:none;stroke-opacity:1"
       d="m 1114.446,306.593 h 111.31 v -87.646 h -111.31 z" /><text
       id="text466"
       style="font-variant:normal;font-weight:bold;font-stretch:normal;font-size:27.95999908px;font-family:Aptos;-inkscape-font-specification:Aptos-Bold;writing-mode:lr-tb;fill:#ffffff;fill-opacity:1;fill-rule:nonzero;stroke:none"
       transform="matrix(1,0,0,-1,1156.9441,253.7699)"><tspan
         id="tspan464"
         y="0"
         x="0">W</tspan></text>
<g
       transform="translate(1281.8502,218.9468)"
       id="g468"><path
         id="path470"
         style="fill:#e97132;fill-opacity:1;fill-rule:evenodd;stroke:none"
         d="M 0,0 31.114,43.823 H 80.196 L 111.31,0 Z" /></g><g
       transform="translate(1281.8502,218.9468)"
       id="g472"><path
         id="path474"
         style="fill:none;stroke:#622c0f;stroke-width:1.5;stroke-linecap:butt;stroke-linejoin:miter;stroke-miterlimit:8;stroke-dasharray:none;stroke-opacity:1"
         d="M 0,0 31.114,43.823 H 80.196 L 111.31,0 Z" /></g><text
       id="text478"
       style="font-variant:normal;font-weight:bold;font-stretch:normal;font-size:27.95999908px;font-family:Aptos;-inkscape-font-specification:Aptos-Bold;writing-mode:lr-tb;fill:#ffffff;fill-opacity:1;fill-rule:nonzero;stroke:none"
       transform="matrix(1,0,0,-1,1328.778,227.775)"><tspan
         id="tspan476"
         y="0"
         x="0">A</tspan></text>
<g
       transform="translate(1393.1608,306.5929)"
       id="g480"><path
         id="path482"
         style="fill:#e97132;fill-opacity:1;fill-rule:evenodd;stroke:none"
         d="M 0,0 -31.114,-43.823 H -80.196 L -111.31,0 Z" /></g><g
       transform="translate(1393.1608,306.5929)"
       id="g484"><path
         id="path486"
         style="fill:none;stroke:#622c0f;stroke-width:1.5;stroke-linecap:butt;stroke-linejoin:miter;stroke-miterlimit:8;stroke-dasharray:none;stroke-opacity:1"
         d="M 0,0 -31.114,-43.823 H -80.196 L -111.31,0 Z" /></g><text
       id="text490"
       style="font-variant:normal;font-weight:bold;font-stretch:normal;font-size:27.95999908px;font-family:Aptos;-inkscape-font-specification:Aptos-Bold;writing-mode:lr-tb;fill:#ffffff;fill-opacity:1;fill-rule:nonzero;stroke:none"
       transform="matrix(1,0,0,-1,1328.783,272.6176)"><tspan
         id="tspan488"
         y="0"
         x="0">B</tspan></text>
<path
       id="path492"
       style="fill:#aeaeae;fill-opacity:1;fill-rule:evenodd;stroke:#042433;stroke-width:1.5;stroke-linecap:butt;stroke-linejoin:miter;stroke-miterlimit:8;stroke-dasharray:none;stroke-opacity:1"
       d="m 1166.689,421.48 h 180.799 v -29.081 h -180.799 z" /><text
       id="text496"
       style="font-variant:normal;font-weight:bold;font-stretch:normal;font-size:18px;font-family:Aptos;-inkscape-font-specification:Aptos-Bold;writing-mode:lr-tb;fill:#000000;fill-opacity:1;fill-rule:nonzero;stroke:none"
       transform="matrix(1,0,0,-1,1180.5004,401.1799)"><tspan
         id="tspan494"
         y="0"
         x="0 13.32 23.76 30.114 40.674599 51.114601 57.468601 61.0686 71.0298 86.995796 97.556396 107.5158 118.0764 128.63699 133.43581 143.87579">Output embedding</tspan></text>
<g
       transform="translate(1170.1016,306.5929)"
       id="g498"><path
         id="path500"
         style="fill:none;stroke:#000000;stroke-width:3;stroke-linecap:butt;stroke-linejoin:miter;stroke-miterlimit:8;stroke-dasharray:none;stroke-opacity:1"
         d="M 0,0 V 38.483 H 61.51" /></g><g
       transform="translate(1230.1117,349.5762)"
       id="g502"><path
         id="path504"
         style="fill:#000000;fill-opacity:1;fill-rule:evenodd;stroke:none"
         d="M 0,0 9,-4.5 0,-9 Z" /></g><g
       transform="translate(1257.0879,137.3591)"
       id="g506"><path
         id="path508"
         style="fill:none;stroke:#000000;stroke-width:3;stroke-linecap:butt;stroke-linejoin:miter;stroke-miterlimit:8;stroke-dasharray:none;stroke-opacity:1"
         d="M 0,0 V 40.794 H 80.418 V 74.088" /></g><g
       transform="translate(1333.0051,209.9469)"
       id="g510"><path
         id="path512"
         style="fill:#000000;fill-opacity:1;fill-rule:evenodd;stroke:none"
         d="M 0,0 4.5,9 9,0 Z" /></g><g
       transform="translate(1257.0879,137.3592)"
       id="g514"><path
         id="path516"
         style="fill:none;stroke:#000000;stroke-width:3;stroke-linecap:butt;stroke-linejoin:miter;stroke-miterlimit:8;stroke-dasharray:none;stroke-opacity:1"
         d="M 0,0 V 40.794 H -86.986 V 74.088" /></g><g
       transform="translate(1174.6021,209.9471)"
       id="g518"><path
         id="path520"
         style="fill:#000000;fill-opacity:1;fill-rule:evenodd;stroke:none"
         d="M 0,0 -4.5,9 -9,0 Z" /></g><g
       id="g522"><g
         clip-path="url(#clipPath528)"
         id="g524"><g
           transform="matrix(0.300912,0,0,-0.30108,1.221e-4,3.05e-5)"
           id="g530"><g
             transform="translate(4563.4028,-875.6215)"
             id="g532"><path
               id="path534"
               style="fill:#000000;fill-opacity:1;fill-rule:nonzero;stroke:none"
               d="m 0,0 c 1.8,7.3 -5.7,14.5 -13.1,11.5 -6.2,-2.2 -8.6,-9.4 -4.3,-15.6 9.7,-12.9 2.6,-33.2 -13.5,-40.2 7.3,13.8 -3.9,26.5 -10.3,31.8 -6.4,5.3 -10.7,10.8 -12,14 -6.5,15.8 3.2,30.9 9.8,34.5 -3,-6.8 -5.8,-19.8 6,-32 0,0 -3.4,13 4,22 7.4,9 7.3,15.7 7.3,15.7 11.5,0 22.4,-6.9 27,-18.2 C 4.4,16.8 4.7,6.2 0,0" /></g></g></g></g><g
       id="g536"><g
         clip-path="url(#clipPath542)"
         id="g538"><g
           transform="scale(0.300912,-0.30108)"
           id="g544"><g
             transform="translate(4243.9883,-87.8919)"
             id="g546"><path
               id="path548"
               style="fill:#000000;fill-opacity:1;fill-rule:nonzero;stroke:none"
               d="m 0,0 c 1.8,7.3 -5.7,14.5 -13.1,11.5 -6.2,-2.2 -8.6,-9.4 -4.3,-15.6 9.7,-12.9 2.6,-33.2 -13.5,-40.2 7.3,13.8 -3.9,26.5 -10.3,31.8 -6.4,5.3 -10.7,10.8 -12,14 -6.5,15.8 3.2,30.9 9.8,34.5 -3,-6.8 -5.8,-19.8 6,-32 0,0 -3.4,13 4,22 7.4,9 7.3,15.7 7.3,15.7 11.5,0 22.4,-6.9 27,-18.2 C 4.4,16.8 4.7,6.2 0,0" /></g></g></g></g><g
       id="g550"><g
         clip-path="url(#clipPath556)"
         id="g552"><g
           transform="scale(0.3167619,-0.3169388)"
           id="g558"><g
             transform="translate(3862.2512,-951.8436)"
             id="g560"><path
               id="path562"
               style="fill:#000000;fill-opacity:1;fill-rule:nonzero;stroke:none"
               d="M 0,0 V 5.3 H -4 V 0 c -2.3,-0.8 -4,-3 -4,-5.7 0,-3.3 2.7,-6 6,-6 3.3,0 6,2.7 6,6 0,2.6 -1.7,4.8 -4,5.7 m -17,-36.7 c 0,-8.3 6.7,-15 15,-15 8.3,0 15,6.7 15,15 v 11.1 l -15,-1.1 -15,1.1 z m 36,11.5 v -11.5 c 0,-11.6 -9.4,-21 -21,-21 -11.6,0 -21,9.4 -21,21 v 11.5 l -7,0.5 v 38 l 28,2 28,-2 v -38 z" /></g></g></g></g><g
       id="g564"><g
         clip-path="url(#clipPath570)"
         id="g566"><g
           transform="scale(0.3167619,-0.3169388)"
           id="g572"><g
             transform="translate(3345.4595,-58.4337)"
             id="g574"><path
               id="path576"
               style="fill:#000000;fill-opacity:1;fill-rule:nonzero;stroke:none"
               d="M 0,0 V 5.3 H -4 V 0 c -2.3,-0.8 -4,-3 -4,-5.7 0,-3.3 2.7,-6 6,-6 3.3,0 6,2.7 6,6 0,2.6 -1.7,4.8 -4,5.7 m -17,-36.7 c 0,-8.3 6.7,-15 15,-15 8.3,0 15,6.7 15,15 v 11.1 l -15,-1.1 -15,1.1 z m 36,11.5 v -11.5 c 0,-11.6 -9.4,-21 -21,-21 -11.6,0 -21,9.4 -21,21 v 11.5 l -7,0.5 v 38 l 28,2 28,-2 v -38 z" /></g></g></g></g><text
       id="text582"
       style="font-variant:normal;font-weight:bold;font-stretch:normal;font-size:20.04000092px;font-family:Aptos;-inkscape-font-specification:Aptos-Bold;writing-mode:lr-tb;fill:#000000;fill-opacity:1;fill-rule:nonzero;stroke:none"
       transform="matrix(1,0,0,-1,1077.1028,16.1437)"><tspan
         id="tspan578"
         y="0"
         x="0 10.679316 17.879688 29.039965 38.039928 49.202209 60.841438 64.929604 83.047768 94.210045 99.600807 109.80116 121.4404 128.52052">Frozen Weights</tspan><tspan
         id="tspan580"
         y="-2.3847599"
         x="210.62041 219.86084 226.7005 237.74054 243.13129 254.77252 265.81256 277.57605 283.45578 294.61807 298.46573 316.58591 327.7482 333.13895 343.33731 354.97855 362.05869">Trainable Weights</tspan></text>
<g
       id="g584"><g
         clip-path="url(#clipPath590)"
         id="g586"><g
           transform="translate(1239.1117,345.0763)"
           id="g592"><path
             id="path594"
             style="fill:#156082;fill-opacity:1;fill-rule:evenodd;stroke:none"
             d="m 0,0 c 0,9.928 8.048,17.976 17.976,17.976 9.928,0 17.976,-8.048 17.976,-17.976 0,-9.928 -8.048,-17.976 -17.976,-17.976 C 8.048,-17.976 0,-9.928 0,0" /></g><g
           transform="translate(1239.1117,345.0763)"
           id="g596"><path
             id="path598"
             style="fill:none;stroke:#042433;stroke-width:1.5;stroke-linecap:butt;stroke-linejoin:miter;stroke-miterlimit:8;stroke-dasharray:none;stroke-opacity:1"
             d="m 0,0 c 0,9.928 8.048,17.976 17.976,17.976 9.928,0 17.976,-8.048 17.976,-17.976 0,-9.928 -8.048,-17.976 -17.976,-17.976 C 8.048,-17.976 0,-9.928 0,0 Z" /></g></g></g><text
       id="text602"
       style="font-variant:normal;font-weight:bold;font-stretch:normal;font-size:27.95999908px;font-family:Aptos;-inkscape-font-specification:Aptos-Bold;writing-mode:lr-tb;fill:#ffffff;fill-opacity:1;fill-rule:nonzero;stroke:none"
       transform="matrix(1,0,0,-1,1249.5878,336.0763)"><tspan
         id="tspan600"
         y="0"
         x="0">+</tspan></text>
<g
       transform="translate(1257.0878,363.0523)"
       id="g604"><path
         id="path606"
         style="fill:none;stroke:#000000;stroke-width:3;stroke-linecap:butt;stroke-linejoin:miter;stroke-miterlimit:8;stroke-dasharray:none;stroke-opacity:1"
         d="m 0,0 v 14.673 0 7.174" /></g><g
       transform="translate(1252.5875,383.3994)"
       id="g608"><path
         id="path610"
         style="fill:#000000;fill-opacity:1;fill-rule:evenodd;stroke:none"
         d="M 0,0 4.5,9 9,0 Z" /></g></g></svg>